<?xml version="1.0" encoding="UTF-8"?>
<svg version="1.1" xmlns="http://www.w3.org/2000/svg" width="1024" height="1024">
<path d="M0 0 C337.92 0 675.84 0 1024 0 C1024 337.92 1024 675.84 1024 1024 C686.08 1024 348.16 1024 0 1024 C0 686.08 0 348.16 0 0 Z " fill="#FDFDFD" transform="translate(0,0)"/>
<path d="M0 0 C19.14 0 38.28 0 58 0 C58 71.61 58 143.22 58 217 C38.86 217 19.72 217 0 217 C0 145.39 0 73.78 0 0 Z " fill="#111111" transform="translate(175,383)"/>
<path d="M0 0 C11.18297136 8.65305325 18.35711778 19.94908377 21.15234375 33.875 C23.47093579 53.19021302 22.49222917 72.63633643 10.625 88.8125 C2.25981908 99.22071549 -9.23761167 104.90189425 -22.375 106.8125 C-39.20185365 108.23226578 -54.11033675 105.06873492 -67.390625 94.15625 C-78.4917736 83.92388694 -82.99271459 69.05989393 -83.61328125 54.31640625 C-84.02728938 35.75910049 -81.05253582 18.98242233 -67.81640625 5.0703125 C-50.63505396 -10.8190021 -19.51559531 -12.65717343 0 0 Z " fill="#131313" transform="translate(489.375,495.1875)"/>
<path d="M0 0 C12.87056975 11.07988178 18.61259877 23.2881914 21 40 C12.42 40 3.84 40 -5 40 C-5.639375 38.06125 -6.27875 36.1225 -6.9375 34.125 C-10.40063973 25.19476889 -15.50884265 18.52685866 -24.0625 14 C-35.58183742 8.98465771 -45.9970757 8.69043729 -57.984375 12.73828125 C-62.30398286 14.54557832 -65.61176596 16.79091396 -69 20 C-69.52980469 20.48984375 -70.05960937 20.9796875 -70.60546875 21.484375 C-83.23928265 34.60535396 -84.48819378 53.92365863 -84.42626953 71.1184082 C-84.08603003 85.86720387 -80.74112494 99.74328326 -70.55078125 110.81640625 C-60.50970215 119.41206202 -48.91521718 121.8127425 -36 121 C-24.43118645 119.07186441 -16.04307814 114.34562292 -9 105 C-7.35 101.7 -5.7 98.4 -4 95 C4.25 95 12.5 95 21 95 C17.63730716 111.81346419 10.31594278 124.26989001 -3.65234375 134.4765625 C-19.19881797 144.56495676 -39.14293838 147.26600852 -57.125 143.8125 C-74.40339614 139.59493874 -89.95440788 131.7716742 -99.67578125 116.33984375 C-101.22761722 113.60198923 -102.64006696 110.83759164 -104 108 C-104.38027344 107.23300781 -104.76054687 106.46601562 -105.15234375 105.67578125 C-115.2418439 83.2504394 -113.33889061 53.59180935 -105.75 30.75 C-99.37351569 14.26169443 -90.25831145 0.06141276 -74 -8 C-49.70348933 -18.24201314 -21.19672482 -16.16486136 0 0 Z " fill="#131313" transform="translate(373,458)"/>
<path d="M0 0 C0.84433594 0.32871094 1.68867187 0.65742188 2.55859375 0.99609375 C12.81886168 5.50936229 20.36850959 13.87567493 25 24 C29.41088728 36.28545207 30 46.89640744 30 60 C4.26 60 -21.48 60 -48 60 C-46.24647823 74.65910085 -46.24647823 74.65910085 -38.1875 85.875 C-31.03269957 90.64486695 -24.58403196 91.90486947 -16 91 C-5.86519893 88.807833 0.34804611 83.47793083 6 75 C8.33837891 74.65942383 8.33837891 74.65942383 11.2265625 74.70703125 C12.7734375 74.7215332 12.7734375 74.7215332 14.3515625 74.73632812 C15.97191406 74.7740332 15.97191406 74.7740332 17.625 74.8125 C18.71296875 74.82603516 19.8009375 74.83957031 20.921875 74.85351562 C23.61507409 74.88895246 26.30729374 74.93835669 29 75 C27.48050526 86.79335125 20.14998378 95.35223503 11.06640625 102.52734375 C-1.68779415 111.25111076 -19.23333276 113.10578413 -34.22021484 110.63378906 C-46.16180459 107.88616664 -56.38582819 101.38284613 -63.5078125 91.3984375 C-73.58111671 75.20731502 -75.41432881 55.30767292 -71.75390625 36.80078125 C-68.13515856 23.35703982 -60.93996706 11.30593312 -49.375 3.3125 C-35.15946097 -4.83378612 -15.23533624 -6.28235067 0 0 Z " fill="#121212" transform="translate(784,491)"/>
<path d="M0 0 C8.11319293 5.62807077 13.26029969 12.76181101 15.16796875 22.50390625 C15.25729285 25.17354181 15.29424888 27.81618174 15.28149414 30.48535156 C15.28164017 31.28572845 15.28178619 32.08610535 15.28193665 32.91073608 C15.28124105 35.55119556 15.27346515 38.19158413 15.265625 40.83203125 C15.26375957 42.66477418 15.26233626 44.49751762 15.26133728 46.33026123 C15.25752197 51.15040467 15.24770008 55.9705179 15.2366333 60.79064941 C15.226398 65.7106892 15.22183512 70.63073388 15.21679688 75.55078125 C15.20607694 85.20183831 15.1884881 94.85286504 15.16796875 104.50390625 C7.24796875 104.50390625 -0.67203125 104.50390625 -8.83203125 104.50390625 C-8.86176025 101.48472046 -8.86176025 101.48472046 -8.89208984 98.40454102 C-8.95923415 91.72689148 -9.03686905 85.04939289 -9.11955833 78.37191868 C-9.16933597 74.32651203 -9.21566637 70.28112917 -9.25390625 66.2355957 C-9.2909948 62.32566023 -9.33741592 58.4159333 -9.39009476 54.5061779 C-9.40851433 53.02042262 -9.4236673 51.53462285 -9.43537521 50.04879951 C-9.25728858 34.80673941 -9.25728858 34.80673941 -15.83203125 21.50390625 C-21.58850212 16.99884209 -27.12784477 15.01174643 -34.39453125 15.18359375 C-40.86511304 16.03389456 -47.20923173 18.88110673 -51.83203125 23.50390625 C-58.05461321 31.80068219 -57.16875332 42.30919194 -57.24609375 52.16015625 C-57.26482983 53.6733096 -57.28440502 55.18645278 -57.30477905 56.69958496 C-57.35584884 60.65814174 -57.39560816 64.6167323 -57.43292236 68.57543945 C-57.47312083 72.62459496 -57.52414044 76.67361301 -57.57421875 80.72265625 C-57.67067979 88.64965206 -57.75417708 96.57670584 -57.83203125 104.50390625 C-65.75203125 104.50390625 -73.67203125 104.50390625 -81.83203125 104.50390625 C-81.83203125 68.86390625 -81.83203125 33.22390625 -81.83203125 -3.49609375 C-73.91203125 -3.49609375 -65.99203125 -3.49609375 -57.83203125 -3.49609375 C-57.50203125 0.79390625 -57.17203125 5.08390625 -56.83203125 9.50390625 C-55.51203125 7.85390625 -54.19203125 6.20390625 -52.83203125 4.50390625 C-37.89168732 -9.09276649 -17.15961501 -10.17428501 0 0 Z " fill="#121212" transform="translate(681.83203125,494.49609375)"/>
<path d="M0 0 C10.08570163 7.74321609 15.60530222 17.39006062 17.421875 29.859375 C18.41059241 41.92172742 14.20709764 52.39792119 6.8984375 61.82421875 C-0.43762446 70.00124391 -11.25728667 74.12242475 -22.00390625 75.07421875 C-33.916262 75.53737411 -45.16827917 70.59406728 -53.94921875 62.6484375 C-62.55992183 53.19111853 -65.37123788 42.28089336 -64.92578125 29.80078125 C-63.97105428 18.97696651 -58.73001622 9.5958429 -50.953125 2.109375 C-36.26650847 -10.08221787 -15.69231951 -10.09505905 0 0 Z " fill="#0E0E0E" transform="translate(227.578125,282.140625)"/>
<path d="M0 0 C1.14082031 0.00644531 2.28164063 0.01289063 3.45703125 0.01953125 C6.1875 0.1875 6.1875 0.1875 7.1875 1.1875 C7.27463831 2.89522358 7.29450007 4.60648649 7.28515625 6.31640625 C7.28193359 7.35087891 7.27871094 8.38535156 7.27539062 9.45117188 C7.26282227 11.0840918 7.26282227 11.0840918 7.25 12.75 C7.24548828 13.84248047 7.24097656 14.93496094 7.23632812 16.06054688 C7.22449826 18.76958495 7.20801543 21.47851599 7.1875 24.1875 C6.07632813 24.12949219 4.96515625 24.07148438 3.8203125 24.01171875 C-5.06763513 23.68690339 -12.38120795 23.60632215 -19.8125 29.1875 C-25.71197143 34.78443443 -26.97835275 41.60813008 -27.24487305 49.4296875 C-27.29667653 52.30736387 -27.31228432 55.18442298 -27.32421875 58.0625 C-27.34108634 59.59807757 -27.35923935 61.1336415 -27.37861633 62.66918945 C-27.42589709 66.68694803 -27.45584755 70.70465131 -27.48205566 74.72259521 C-27.51197259 78.83210159 -27.55846434 82.94141785 -27.60351562 87.05078125 C-27.68929906 95.09627598 -27.75522025 103.1417518 -27.8125 111.1875 C-36.0625 111.1875 -44.3125 111.1875 -52.8125 111.1875 C-52.8125 75.5475 -52.8125 39.9075 -52.8125 3.1875 C-44.5625 3.1875 -36.3125 3.1875 -27.8125 3.1875 C-27.8125 7.8075 -27.8125 12.4275 -27.8125 17.1875 C-27.008125 15.82625 -26.20375 14.465 -25.375 13.0625 C-19.41923391 4.12181095 -10.67067744 -0.13414566 0 0 Z " fill="#131313" transform="translate(578.8125,487.8125)"/>
<path d="M0 0 C0 7.92 0 15.84 0 24 C-2.64 23.9175 -5.28 23.835 -8 23.75 C-16.440672 23.65506238 -21.16635627 24.76270085 -27.8125 30.375 C-32.89187038 36.47024446 -34.10518679 41.97155267 -34.20532227 49.69628906 C-34.22017166 50.69202942 -34.22017166 50.69202942 -34.23532104 51.70788574 C-34.2668126 53.89376302 -34.29164437 56.079662 -34.31640625 58.265625 C-34.33698645 59.78449049 -34.35798321 61.30335038 -34.37937927 62.82220459 C-34.43448984 66.81371525 -34.48394753 70.80527665 -34.53222656 74.796875 C-34.58252217 78.8724416 -34.63816611 82.9479348 -34.69335938 87.0234375 C-34.80080619 95.01556454 -34.90178645 103.00775416 -35 111 C-42.92 111 -50.84 111 -59 111 C-59 75.36 -59 39.72 -59 3 C-51.41 3 -43.82 3 -36 3 C-35.505 9.93 -35.505 9.93 -35 17 C-34.154375 15.80375 -33.30875 14.6075 -32.4375 13.375 C-23.23946806 1.204302 -14.95915795 -0.43151417 0 0 Z " fill="#111111" transform="translate(888,488)"/>
<path d="M0 0 C7.6252991 4.82449922 11.85869916 11.44476402 14.37036133 19.96337891 C15.3363379 24.4913627 15.06753883 29.17752092 15.08984375 33.7890625 C15.11046875 34.83191406 15.13109375 35.87476563 15.15234375 36.94921875 C15.20641738 47.7774624 12.9146179 56.78037229 5.83984375 65.1640625 C0.02846316 70.6414557 -6.83410196 72.70235964 -14.765625 72.47265625 C-21.99678821 71.54074452 -27.8254809 68.46358583 -32.6953125 63.078125 C-41.50126088 51.57168579 -41.52186798 36.46272264 -39.6953125 22.6484375 C-37.96988391 14.68492092 -34.55762283 8.47441455 -28.72265625 2.7890625 C-20.17490729 -2.63146123 -9.57089176 -4.3301709 0 0 Z " fill="#FCFCFC" transform="translate(471.16015625,509.8359375)"/>
<path d="M0 0 C6.64416804 3.51386168 11.07908896 9.23058136 13.5546875 16.25 C14.31498536 19.61870438 14.63415395 23.07323159 15.0625 26.5 C-2.4275 26.5 -19.9175 26.5 -37.9375 26.5 C-37.9375 18.1910254 -36.24743681 13.10078385 -31.8125 6.1875 C-22.99863492 -2.05154779 -11.44979242 -4.35717357 0 0 Z " fill="#F9F9F9" transform="translate(773.9375,508.5)"/>
<path d="M0 0 C19.14 0 38.28 0 58 0 C58 71.61 58 143.22 58 217 C50.08 217 42.16 217 34 217 C37.68577577 215.15711212 38.72122653 214.75298955 42.546875 214.8046875 C43.30838867 214.80968262 44.06990234 214.81467773 44.85449219 214.81982422 C45.81000977 214.83803223 46.76552734 214.85624023 47.75 214.875 C49.35197922 214.89773695 50.9539701 214.9196614 52.55596924 214.94094849 C53.80455153 214.95760402 53.80455153 214.95760402 55.0783577 214.97459602 C55.71249966 214.98297934 56.34664162 214.99136265 57 215 C56.97021844 214.09855412 56.94043688 213.19710825 56.90975285 212.26834583 C56.12323287 187.8102405 55.86027203 163.38054181 55.89860606 138.91083312 C55.90500898 134.10505184 55.90545639 129.29926938 55.90663147 124.4934845 C55.90969626 115.46009742 55.91784164 106.42672297 55.92798096 97.39334136 C55.93929611 87.08071031 55.94469068 76.76807854 55.94967639 66.45544279 C55.96003044 45.30361999 55.97831268 24.15181442 56 3 C38.18 2.67 20.36 2.34 2 2 C2 72.29 2 142.58 2 215 C12.23 215 22.46 215 33 215 C33 215.66 33 216.32 33 217 C22.11 217 11.22 217 0 217 C0 145.39 0 73.78 0 0 Z " fill="#010101" transform="translate(175,383)"/>
<path d="M0 0 C0.99 0 1.98 0 3 0 C3 7.59 3 15.18 3 23 C-5.0625 22.875 -5.0625 22.875 -7.55883789 22.81982422 C-12.42762834 22.78367705 -16.38374049 23.44285536 -21 25 C-17.67821178 21.5272214 -15.52572283 20.83169481 -10.75 20.375 C-9.81671875 20.27960938 -8.8834375 20.18421875 -7.921875 20.0859375 C-5 20 -5 20 1 21 C0.67 14.07 0.34 7.14 0 0 Z " fill="#040404" transform="translate(583,489)"/>
<path d="M0 0 C7.59 0 15.18 0 23 0 C22.18663133 4.88021201 21.77939233 6.9117976 19.4375 10.875 C18.98246094 11.65617188 18.52742187 12.43734375 18.05859375 13.2421875 C17.70925781 13.82226562 17.35992188 14.40234375 17 15 C16.67 14.34 16.34 13.68 16 13 C17.4455566 9.22454628 19.2588217 5.65222765 21 2 C10.605 2.495 10.605 2.495 0 3 C0 2.01 0 1.02 0 0 Z " fill="#1D1D1D" transform="translate(790,566)"/>
<path d="M0 0 C0.66 0 1.32 0 2 0 C2 7.59 2 15.18 2 23 C-0.64 22.67 -3.28 22.34 -6 22 C-6 21.67 -6 21.34 -6 21 C-4.02 21 -2.04 21 0 21 C0 14.07 0 7.14 0 0 Z " fill="#060606" transform="translate(886,489)"/>
<path d="M0 0 C1.2827959 2.38233524 2.18544487 4.59110551 3 7.1875 C3.67987492 10.12865478 3.67987492 10.12865478 6 11 C6.92526506 14.51600723 7.67961567 17.64076866 6 21 C2.37971588 14.2421363 -0.49196376 7.87142012 0 0 Z " fill="#0A0A0A" transform="translate(264,546)"/>
<path d="M0 0 C-3.18762365 2.12508244 -5.26512223 2.5020163 -9 3 C-9 2.01 -9 1.02 -9 0 C-5.67465243 -1.10844919 -3.37817425 -0.84454356 0 0 Z " fill="#191919" transform="translate(784,598)"/>
<path d="M0 0 C0.99 0 1.98 0 3 0 C3 0.99 3 1.98 3 3 C3.94978897 5.15028304 3.94978897 5.15028304 5 7 C3.68 7.33 2.36 7.66 1 8 C0.34 5.69 -0.32 3.38 -1 1 C-0.67 0.67 -0.34 0.34 0 0 Z " fill="#141414" transform="translate(215,347)"/>
<path d="M0 0 C3.67230705 3.07999946 4.56802365 5.2482602 5 10 C4.01 10 3.02 10 2 10 C1.11064623 6.696686 0.53725895 3.37705625 0 0 Z " fill="#19181A" transform="translate(388,483)"/>
<path d="M0 0 C0.66 0.99 1.32 1.98 2 3 C-0.475 4.485 -0.475 4.485 -3 6 C-3.33 4.68 -3.66 3.36 -4 2 C-2.68 1.34 -1.36 0.68 0 0 Z " fill="#171717" transform="translate(228,345)"/>
<path d="M0 0 C2.33333333 0 4.66666667 0 7 0 C6.67 0.99 6.34 1.98 6 3 C3.9375 3.6875 3.9375 3.6875 2 4 C1.34 2.68 0.68 1.36 0 0 Z " fill="#0D0D0D" transform="translate(271,569)"/>
<path d="M0 0 C-3 2 -3 2 -6.1875 1.625 C-7.115625 1.41875 -8.04375 1.2125 -9 1 C-5.64919071 -1.10976881 -3.77897651 -1.0497157 0 0 Z " fill="#1F1F1F" transform="translate(655,489)"/>
</svg>
