<?xml version="1.0" encoding="UTF-8"?>
<svg version="1.1" xmlns="http://www.w3.org/2000/svg" width="500" height="500">
<path d="M0 0 C9.57 0 19.14 0 29 0 C29 35.31 29 70.62 29 107 C19.43 107 9.86 107 0 107 C0 71.69 0 36.38 0 0 Z " fill="#141414" transform="translate(85,186)"/>
<path d="M0 0 C1.95402051 1.7224017 2.82212698 3.20941297 3.8125 5.59765625 C4.4725 5.59765625 5.1325 5.59765625 5.8125 5.59765625 C6.49006882 7.15545957 7.15409457 8.71915721 7.8125 10.28515625 C8.18375 11.15527344 8.555 12.02539062 8.9375 12.921875 C9.8125 15.59765625 9.8125 15.59765625 9.8125 20.59765625 C5.1925 20.59765625 0.5725 20.59765625 -4.1875 20.59765625 C-8.1875 12.84765625 -8.1875 12.84765625 -8.1875 10.59765625 C-8.8475 10.59765625 -9.5075 10.59765625 -10.1875 10.59765625 C-10.1875 9.93765625 -10.1875 9.27765625 -10.1875 8.59765625 C-10.785625 8.45328125 -11.38375 8.30890625 -12 8.16015625 C-13.74900404 7.71041235 -15.47427023 7.16873284 -17.1875 6.59765625 C-22.90956293 6.12081767 -27.7716011 6.75394598 -33.1875 8.59765625 C-33.1875 9.25765625 -33.1875 9.91765625 -33.1875 10.59765625 C-33.97125 11.36078125 -34.755 12.12390625 -35.5625 12.91015625 C-41.02297848 18.50064612 -41.17930293 25.55952829 -41.375 33.03515625 C-41.29274104 39.85089859 -39.47939076 46.21310343 -37.1875 52.59765625 C-36.5275 52.59765625 -35.8675 52.59765625 -35.1875 52.59765625 C-35.1875 53.25765625 -35.1875 53.91765625 -35.1875 54.59765625 C-26.94423112 57.87157864 -19.38020845 59.16721896 -10.9296875 55.796875 C-8.72880566 54.28191822 -8.16368432 52.82166454 -7.0625 50.41015625 C-5.94921875 48.2734375 -5.94921875 48.2734375 -4.1875 46.59765625 C0.54262703 45.87867694 5.06375684 46.13499115 9.8125 46.59765625 C9.28144479 50.63601012 8.48296948 53.7869061 6.5 57.34765625 C6.09136719 58.105625 5.68273437 58.86359375 5.26171875 59.64453125 C3.64289307 61.82623702 2.30768183 62.59745543 -0.1875 63.59765625 C-0.1875 64.25765625 -0.1875 64.91765625 -0.1875 65.59765625 C-10.25128903 71.75915974 -20.6504384 73.37310991 -32.32421875 70.9453125 C-40.96814201 68.13633883 -47.65164937 62.80370583 -52.15625 54.875 C-57.40666032 43.28034388 -58.20749076 28.71398354 -54.1875 16.59765625 C-51.88467347 11.36805298 -49.35863078 6.35435241 -46.1875 1.59765625 C-45.5275 1.59765625 -44.8675 1.59765625 -44.1875 1.59765625 C-44.1875 0.93765625 -44.1875 0.27765625 -44.1875 -0.40234375 C-31.13378621 -11.33923909 -13.22743335 -8.85765626 0 0 Z " fill="#252525" transform="translate(183.1875,223.40234375)"/>
<path d="M0 0 C7.07681539 7.56129175 7 14.61876735 7 25 C-5.54 25 -18.08 25 -31 25 C-29.70780199 33.17662628 -29.70780199 33.17662628 -27.4375 36.5 C-23.27268546 39.0629628 -18.73899306 39.64137649 -13.96484375 38.5234375 C-11.14264194 37.43290516 -9.31477347 36.51692157 -7.72265625 33.90234375 C-6 32 -6 32 -2.86328125 31.609375 C-1.69152344 31.65578125 -0.51976562 31.7021875 0.6875 31.75 C1.86699219 31.78609375 3.04648437 31.8221875 4.26171875 31.859375 C5.16535156 31.90578125 6.06898438 31.9521875 7 32 C5.57749274 38.48663313 2.56674583 43.37514225 -3 47 C-10.55395782 50.57819055 -17.93560357 52.52398177 -26.25390625 50.43359375 C-30.06888339 49.050936 -33.69490011 47.37554054 -37 45 C-37 44.34 -37 43.68 -37 43 C-37.66 43 -38.32 43 -39 43 C-44.86553436 33.35024993 -45.61308852 22.06544259 -43.3984375 10.9921875 C-42.31144273 7.66532472 -40.94182153 4.9127323 -39 2 C-38.34 2 -37.68 2 -37 2 C-36.814375 1.4225 -36.62875 0.845 -36.4375 0.25 C-34.34094244 -3.03156835 -31.50936118 -4.54354576 -28 -6 C-17.56003052 -8.26199339 -8.14084117 -7.28908314 0 0 Z M-30 10 C-30.33 11.98 -30.66 13.96 -31 16 C-23.08 16 -15.16 16 -7 16 C-7.60788553 10.53915739 -7.60788553 10.53915739 -9 8 C-9.66 8 -10.32 8 -11 8 C-11 7.34 -11 6.68 -11 6 C-18.88645022 2.28872931 -23.92066865 3.92066865 -30 10 Z " fill="#272727" transform="translate(391,244)"/>
<path d="M0 0 C5.71355332 5.22181307 8.83179682 11.12466972 9.2421875 18.94921875 C9.44251101 29.21552209 8.86039292 36.7433262 2.46875 45.1171875 C-3.01364114 50.7332955 -9.18012925 52.78902912 -16.96875 53.0546875 C-24.70471999 52.8551253 -30.91510516 50.74312455 -36.59375 45.40625 C-42.81211093 38.50775585 -44.48405132 30.30865561 -44.2890625 21.26953125 C-43.85855638 15.69878209 -42.72921642 10.68091869 -40.09375 5.7421875 C-39.43375 5.7421875 -38.77375 5.7421875 -38.09375 5.7421875 C-37.84625 5.1646875 -37.59875 4.5871875 -37.34375 3.9921875 C-34.87978623 -0.44294729 -31.94050599 -2.82581641 -27.09375 -4.2578125 C-17.46604681 -6.11579031 -8.05944034 -6.10298199 0 0 Z M-24.09375 7.7421875 C-24.09375 8.4021875 -24.09375 9.0621875 -24.09375 9.7421875 C-24.75375 9.7421875 -25.41375 9.7421875 -26.09375 9.7421875 C-30.85966901 17.48680589 -30.98274115 24.30946383 -29.53125 33.1796875 C-27.44554267 36.89768752 -24.99736121 39.01870632 -21.09375 40.7421875 C-16.81305127 41.50608323 -13.38890716 41.43714988 -9.53125 39.3671875 C-7.87289204 37.85411687 -7.87289204 37.85411687 -8.09375 35.7421875 C-7.43375 35.7421875 -6.77375 35.7421875 -6.09375 35.7421875 C-4.80228587 31.80629683 -4.94650734 27.83483618 -4.96875 23.7421875 C-4.96488281 23.030625 -4.96101563 22.3190625 -4.95703125 21.5859375 C-4.96341022 18.16680733 -5.02174268 15.00925744 -6.09375 11.7421875 C-6.75375 11.7421875 -7.41375 11.7421875 -8.09375 11.7421875 C-8.09375 11.0821875 -8.09375 10.4221875 -8.09375 9.7421875 C-8.75375 9.7421875 -9.41375 9.7421875 -10.09375 9.7421875 C-10.09375 9.0821875 -10.09375 8.4221875 -10.09375 7.7421875 C-12.77018957 6.85004098 -14.34759378 6.60678539 -17.09375 6.6171875 C-17.774375 6.61460937 -18.455 6.61203125 -19.15625 6.609375 C-21.31249781 6.67587624 -21.31249781 6.67587624 -24.09375 7.7421875 Z " fill="#262626" transform="translate(241.09375,242.2578125)"/>
<path d="M0 0 C0.71994141 -0.00128906 1.43988281 -0.00257813 2.18164062 -0.00390625 C7.70939171 0.10674937 10.97294852 0.95335882 15.25 4.375 C15.25 5.035 15.25 5.695 15.25 6.375 C15.91 6.375 16.57 6.375 17.25 6.375 C20.7852569 12.89579557 20.79685 19.06069612 20.9375 26.375 C20.97093506 27.57294189 21.00437012 28.77088379 21.03881836 30.00512695 C21.25918074 38.46418053 21.34097922 46.91393258 21.25 55.375 C16.63 55.375 12.01 55.375 7.25 55.375 C7.220271 53.77060059 7.220271 53.77060059 7.18994141 52.13378906 C7.1137902 48.16024488 7.02508758 44.18706234 6.93261719 40.21386719 C6.89436673 38.49518989 6.85950697 36.77643362 6.828125 35.05761719 C6.78238872 32.5849996 6.72440916 30.11292387 6.6640625 27.640625 C6.65251129 26.87381409 6.64096008 26.10700317 6.62905884 25.31695557 C6.50740881 20.02339152 6.50740881 20.02339152 4.25 15.375 C0.52422909 12.89115273 -2.42484225 11.96024213 -6.91796875 12.76171875 C-8.87496749 13.25010251 -10.81441168 13.80767239 -12.75 14.375 C-15.09565746 22.83271611 -15.19043227 31.22917165 -15.375 39.9375 C-15.41325846 41.43817176 -15.45231451 42.9388234 -15.4921875 44.43945312 C-15.58732196 48.08444944 -15.67165908 51.72959954 -15.75 55.375 C-20.04 55.375 -24.33 55.375 -28.75 55.375 C-28.75 37.555 -28.75 19.735 -28.75 1.375 C-24.46 1.375 -20.17 1.375 -15.75 1.375 C-15.42 3.025 -15.09 4.675 -14.75 6.375 C-14.151875 5.75625 -13.55375 5.1375 -12.9375 4.5 C-8.73948442 0.42192772 -5.61743045 -0.01020423 0 0 Z " fill="#363636" transform="translate(320.75,237.625)"/>
<path d="M0 0 C5.14338337 2.9958329 8.76038445 7.90615335 10.625 13.5 C11.36470621 21.00619913 10.52192467 26.04571852 6.625 32.5 C5.965 32.5 5.305 32.5 4.625 32.5 C4.625 33.16 4.625 33.82 4.625 34.5 C-0.45474463 39.03058305 -5.68703125 39.61648131 -12.375 39.5 C-14.91265064 39.07782304 -16.94456471 38.41141324 -19.375 37.5 C-20.365 37.17 -21.355 36.84 -22.375 36.5 C-22.375 35.84 -22.375 35.18 -22.375 34.5 C-22.973125 34.273125 -23.57125 34.04625 -24.1875 33.8125 C-27.42487427 31.87007544 -28.85388408 29.21429168 -29.94140625 25.63671875 C-31.32372119 18.82477036 -30.84030987 12.59416563 -27.375 6.5 C-20.38584121 -1.81143208 -10.16430502 -4.3980166 0 0 Z " fill="#191919" transform="translate(109.375,135.5)"/>
<path d="M0 0 C0 3.96 0 7.92 0 12 C-1.546875 12.0825 -3.09375 12.165 -4.6875 12.25 C-9.25806026 12.71546017 -11.84894683 13.45506518 -15 17 C-17.12142027 21.16697456 -17.3378964 25.11757519 -17.4140625 29.70703125 C-17.43342865 30.43242599 -17.4527948 31.15782074 -17.4727478 31.90519714 C-17.53222108 34.20751422 -17.57879845 36.50988219 -17.625 38.8125 C-17.66320958 40.37957832 -17.70226303 41.94663631 -17.7421875 43.51367188 C-17.83789563 47.34228152 -17.92204448 51.17098942 -18 55 C-22.29 55 -26.58 55 -31 55 C-31 37.18 -31 19.36 -31 1 C-26.71 1 -22.42 1 -18 1 C-17.67 2.32 -17.34 3.64 -17 5 C-16.236875 4.175 -15.47375 3.35 -14.6875 2.5 C-10.26519074 -1.28293925 -5.54711696 -0.33823884 0 0 Z " fill="#242424" transform="translate(287,238)"/>
<path d="M0 0 C0 3.96 0 7.92 0 12 C-1.36125 12.061875 -2.7225 12.12375 -4.125 12.1875 C-9.26338221 12.76293397 -11.53049617 14.18354579 -15 18 C-16.18543059 22.10467279 -16.19784237 26.23691922 -16.31640625 30.48828125 C-16.33718735 31.19147995 -16.35796844 31.89467865 -16.37937927 32.6191864 C-16.44440115 34.85019817 -16.50353776 37.08132069 -16.5625 39.3125 C-16.60573036 40.83139134 -16.64934605 42.35027177 -16.69335938 43.86914062 C-16.80003334 47.5793112 -16.90143221 51.28960421 -17 55 C-21.29 55 -25.58 55 -30 55 C-30 37.18 -30 19.36 -30 1 C-25.71 1 -21.42 1 -17 1 C-16.67 1.99 -16.34 2.98 -16 4 C-15.401875 3.34 -14.80375 2.68 -14.1875 2 C-9.41567703 -0.994085 -5.57336239 -0.26859578 0 0 Z " fill="#2A2A2A" transform="translate(434,238)"/>
<path d="M0 0 C3.63 0 7.26 0 11 0 C11 2.31 11 4.62 11 7 C11.66 7 12.32 7 13 7 C13 7.99 13 8.98 13 10 C13.99 10.66 14.98 11.32 16 12 C15.27876953 13.73056641 15.27876953 13.73056641 14.54296875 15.49609375 C12.21039326 22.49382023 12.42825897 29.76635398 12.3125 37.0625 C12.27926379 38.51500355 12.24476849 39.96747886 12.20898438 41.41992188 C12.12480821 44.94640739 12.05766349 48.47296962 12 52 C8.04 52 4.08 52 0 52 C0 34.84 0 17.68 0 0 Z " fill="#161616" transform="translate(293,240)"/>
<path d="M0 0 C6.37856241 -0.69584317 9.78183663 0.42834036 14.953125 4.2265625 C20.03056848 8.62572155 22.77979687 13.34434655 24 20 C24 23.63 24 27.26 24 31 C11.46 31 -1.08 31 -14 31 C-14.33 32.32 -14.66 33.64 -15 35 C-15 33.35 -15 31.7 -15 30 C-16.32 29.34 -17.64 28.68 -19 28 C-14.21884035 23.8828903 -11.23741907 22.86440598 -5.015625 22.90234375 C-4.08105469 22.90556641 -3.14648438 22.90878906 -2.18359375 22.91210938 C-0.73146484 22.92467773 -0.73146484 22.92467773 0.75 22.9375 C1.73355469 22.94201172 2.71710938 22.94652344 3.73046875 22.95117188 C6.15367194 22.962935 8.57684377 22.98086982 11 23 C10.01 20.03 9.02 17.06 8 14 C7.34 14 6.68 14 6 14 C6 13.34 6 12.68 6 12 C5.360625 11.773125 4.72125 11.54625 4.0625 11.3125 C2 10 2 10 1.3125 7.6875 C1.209375 6.800625 1.10625 5.91375 1 5 C0.814375 4.071875 0.62875 3.14375 0.4375 2.1875 C0.293125 1.465625 0.14875 0.74375 0 0 Z M-19 30 C-17 31 -17 31 -17 31 Z " fill="#1D1D1D" transform="translate(374,238)"/>
<path d="M0 0 C0.33 0 0.66 0 1 0 C1.04898438 1.07121094 1.09796875 2.14242188 1.1484375 3.24609375 C1.22345294 4.64325639 1.2990013 6.0403905 1.375 7.4375 C1.4059375 8.14455078 1.436875 8.85160156 1.46875 9.58007812 C1.57280629 11.39239188 1.77919892 13.19817988 2 15 C4.04425902 16.02212951 5.75419972 16.59167268 8 17 C8.99 16.67 9.98 16.34 11 16 C12.04455627 19.58133579 12.65190536 21.70340595 10.94140625 25.10546875 C6.22631086 31.63312029 0.98956737 35.40208653 -7 37 C-14.55130102 37.7149903 -21.69867358 37.00436158 -28.046875 32.5703125 C-30.89809033 30.20215431 -32.92898865 28.10651702 -35 25 C-35 24.01 -35 23.02 -35 22 C-34.01 22 -33.02 22 -32 22 C-31.67 21.34 -31.34 20.68 -31 20 C-30.34 20 -29.68 20 -29 20 C-27.38050989 17.42786866 -26.95591249 16.32330841 -27.375 13.25 C-27.58125 12.5075 -27.7875 11.765 -28 11 C-27.01 11 -26.02 11 -25 11 C-23.50178941 14.37097383 -23 16.20442119 -23 20 C-22.1028125 20.433125 -22.1028125 20.433125 -21.1875 20.875 C-19 22 -19 22 -16 24 C-12.95703393 24.48194306 -10.04434261 24.47429975 -7 24 C-4.55901182 22.14579161 -4.55901182 22.14579161 -3 20 C-2.34 20 -1.68 20 -1 20 C-0.67 13.4 -0.34 6.8 0 0 Z " fill="#262626" transform="translate(236,258)"/>
<path d="M0 0 C0 0.66 0 1.32 0 2 C0.66 2 1.32 2 2 2 C2.90683762 4.72051286 3.12842547 6.32733006 3.1328125 9.125 C3.13474609 10.30835938 3.13474609 10.30835938 3.13671875 11.515625 C3.13285156 12.33546875 3.12898437 13.1553125 3.125 14 C3.12886719 14.81984375 3.13273438 15.6396875 3.13671875 16.484375 C3.13542969 17.27328125 3.13414062 18.0621875 3.1328125 18.875 C3.13168457 19.59429687 3.13055664 20.31359375 3.12939453 21.0546875 C3 23 3 23 2 26 C1.34 26 0.68 26 0 26 C0 24.68 0 23.36 0 22 C-0.5775 22.33 -1.155 22.66 -1.75 23 C-4 24 -4 24 -8 24 C-8.33 23.34 -8.66 22.68 -9 22 C-9.33 22 -9.66 22 -10 22 C-10 16.72 -10 11.44 -10 6 C-10.66 6 -11.32 6 -12 6 C-12 4.35 -12 2.7 -12 1 C-11.38125 1.165 -10.7625 1.33 -10.125 1.5 C-8.03936614 2.07634644 -8.03936614 2.07634644 -6 2 C-3 0 -3 0 0 0 Z " fill="#202020" transform="translate(247,252)"/>
<path d="M0 0 C3.24271506 0.5590888 4.93057424 1.4132178 7 4 C7 4.66 7 5.32 7 6 C7.66 6 8.32 6 9 6 C9.67756882 7.55780332 10.34159457 9.12150096 11 10.6875 C11.37125 11.55761719 11.7425 12.42773438 12.125 13.32421875 C13 16 13 16 13 21 C8.38 21 3.76 21 -1 21 C-5 13.25 -5 13.25 -5 11 C-5.66 11 -6.32 11 -7 11 C-7 10.34 -7 9.68 -7 9 C-8.32 8.67 -9.64 8.34 -11 8 C-10.34 7.67 -9.68 7.34 -9 7 C-8.01 7.33 -7.02 7.66 -6 8 C-6 7.34 -6 6.68 -6 6 C-4.68 5.67 -3.36 5.34 -2 5 C-2 4.34 -2 3.68 -2 3 C-1.34 3 -0.68 3 0 3 C0 2.01 0 1.02 0 0 Z " fill="#2D2D2D" transform="translate(180,223)"/>
<path d="M0 0 C0.33 0 0.66 0 1 0 C1.04898438 1.07121094 1.09796875 2.14242188 1.1484375 3.24609375 C1.22345294 4.64325639 1.2990013 6.0403905 1.375 7.4375 C1.4059375 8.14455078 1.436875 8.85160156 1.46875 9.58007812 C1.57280629 11.39239188 1.77919892 13.19817988 2 15 C4.04425902 16.02212951 5.75419972 16.59167268 8 17 C8.99 16.67 9.98 16.34 11 16 C12.08241804 19.71114757 12.65158234 21.7427522 10.8359375 25.24609375 C9.31727757 27.34453764 7.91094371 29.2483016 6 31 C5.01 31 4.02 31 3 31 C2.34 29.35 1.68 27.7 1 26 C-3.65052872 25.73067479 -3.65052872 25.73067479 -8 27 C-9.54613014 26.91348369 -11.08909387 26.75997364 -12.625 26.5625 C-13.44226563 26.46066406 -14.25953125 26.35882813 -15.1015625 26.25390625 C-15.72804687 26.17011719 -16.35453125 26.08632813 -17 26 C-16.67 25.34 -16.34 24.68 -16 24 C-15.09507812 24.06960938 -15.09507812 24.06960938 -14.171875 24.140625 C-8.95278249 24.50295345 -8.95278249 24.50295345 -4.5625 22 C-4.046875 21.34 -3.53125 20.68 -3 20 C-2.34 20 -1.68 20 -1 20 C-0.67 13.4 -0.34 6.8 0 0 Z " fill="#3B3B3B" transform="translate(236,258)"/>
<path d="M0 0 C3.96 0 7.92 0 12 0 C12.33 1.65 12.66 3.3 13 5 C13.33 4.34 13.66 3.68 14 3 C15.32 3.33 16.64 3.66 18 4 C17.01 5.65 16.02 7.3 15 9 C13.68 8.67 12.36 8.34 11 8 C11 5.69 11 3.38 11 1 C7.37 1 3.74 1 0 1 C0 0.67 0 0.34 0 0 Z " fill="#565656" transform="translate(293,239)"/>
<path d="M0 0 C0.99 0.33 1.98 0.66 3 1 C2.67 1.99 2.34 2.98 2 4 C-3.22745859 5.2063366 -7.76528314 4.75612577 -13 4 C-12.67 3.34 -12.34 2.68 -12 2 C-11.07767578 2.03480469 -11.07767578 2.03480469 -10.13671875 2.0703125 C-8.92435547 2.09738281 -8.92435547 2.09738281 -7.6875 2.125 C-6.48673828 2.15980469 -6.48673828 2.15980469 -5.26171875 2.1953125 C-2.71611424 2.15817322 -2.71611424 2.15817322 0 0 Z " fill="#5E5E5E" transform="translate(232,280)"/>
<path d="M0 0 C0 0.66 0 1.32 0 2 C4.29 2 8.58 2 13 2 C13 2.33 13 2.66 13 3 C8.05 3.33 3.1 3.66 -2 4 C-2.66 3.01 -3.32 2.02 -4 1 C-2 0 -2 0 0 0 Z " fill="#454545" transform="translate(153,226)"/>
<path d="M0 0 C1.9375 0.8125 1.9375 0.8125 4 2 C4.33 2.99 4.66 3.98 5 5 C4.34 5 3.68 5 3 5 C3 5.66 3 6.32 3 7 C0.13275314 6.42655063 -0.8614515 6.1385485 -3 4 C-2.01 2.68 -1.02 1.36 0 0 Z " fill="#131313" transform="translate(171,224)"/>
<path d="M0 0 C0 2 0 2 -1.375 3.625 C-3 5 -3 5 -5 5 C-5.12375 4.360625 -5.2475 3.72125 -5.375 3.0625 C-5.684375 2.0415625 -5.684375 2.0415625 -6 1 C-6.66 0.67 -7.32 0.34 -8 0 C-5.13822943 -1.43088528 -3.06624227 -0.59991697 0 0 Z " fill="#292929" transform="translate(95,137)"/>
<path d="M0 0 C0.66 0 1.32 0 2 0 C2.95024979 3.69541586 2.95024979 6.30458414 2 10 C1.34 10 0.68 10 0 10 C0 6.7 0 3.4 0 0 Z " fill="#727272" transform="translate(197,261)"/>
<path d="M0 0 C2.01822917 0.06510417 4.03645833 0.13020833 6.0546875 0.1953125 C2.0546875 2.1953125 2.0546875 2.1953125 -1.9453125 4.1953125 C-2.6053125 3.5353125 -3.2653125 2.8753125 -3.9453125 2.1953125 C-1.9453125 0.1953125 -1.9453125 0.1953125 0 0 Z " fill="#0E0E0E" transform="translate(158.9453125,216.8046875)"/>
<path d="M0 0 C1.32 0 2.64 0 4 0 C3.67 1.32 3.34 2.64 3 4 C1.68 4 0.36 4 -1 4 C-0.67 2.68 -0.34 1.36 0 0 Z " fill="#101010" transform="translate(188,271)"/>
<path d="M0 0 C0.33 0.66 0.66 1.32 1 2 C0.06553465 4.03144641 -0.93224776 6.03533587 -2 8 C-3.0625 6.1875 -3.0625 6.1875 -4 4 C-3.67 3.01 -3.34 2.02 -3 1 C-2.01 0.67 -1.02 0.34 0 0 Z " fill="#464646" transform="translate(191,274)"/>
<path d="M0 0 C1 3 1 3 0.22265625 4.82421875 C-0.8515625 6.54947917 -1.92578125 8.27473958 -3 10 C-3.33 10 -3.66 10 -4 10 C-4 8.35 -4 6.7 -4 5 C-3.34 5 -2.68 5 -2 5 C-2 4.01 -2 3.02 -2 2 C-1.34 2 -0.68 2 0 2 C0 1.34 0 0.68 0 0 Z " fill="#696969" transform="translate(397,276)"/>
</svg>
